<svg xmlns="http://www.w3.org/2000/svg" width="1536" height="1536">
    <circle cx="769" cy="767" r="768"/>
    <path d="M586.83 1001.71H444.578v-57.908c-14.443 18.13-48.426 36.612-63.177 44.91-25.813 14.443-60.865 23.846-93.746 23.846-53.163 0-100.487-16.794-141.972-53.362-49.476-43.637-72.723-110.35-72.723-182.258 0-73.137 25.352-131.524 76.056-175.161 40.257-34.726 89.486-62.518 141.727-62.518 30.422 0 67.941 2.729 94.676 15.635 15.365 7.375 42.872 24.728 59.159 41.63V291.482H586.83zM441.39 777.4c0-27.044-7.418-59.42-26.47-78.165-19.054-19.053-53.69-35.955-80.733-35.955-30.116 0-58.014 21.906-77.374 44.648-15.672 18.438-23.508 46.862-23.508 70.525 0 23.661 8.89 49.98 24.562 68.418 19.052 22.74 39.575 38.324 69.998 38.324 27.35 0 59.88-11.479 78.625-30.225 19.053-18.746 34.9-50.222 34.9-77.57zM1254.132 294.415c-23.662 0-43.79 8.297-60.385 24.891-16.287 16.287-24.43 36.262-24.43 59.924s8.143 43.79 24.43 60.385c16.594 16.593 36.723 24.89 60.385 24.89 23.969 0 44.097-8.143 60.384-24.43 16.594-16.594 24.891-36.875 24.891-60.845 0-23.662-8.297-43.637-24.891-59.924-16.594-16.594-36.722-24.891-60.384-24.891zm-374.5 238.68c-87.887 0-155.647 27.396-203.278 82.188-39.335 45.389-59.002 97.418-59.002 156.1 0 65.167 19.513 120.118 58.54 164.859 47.325 54.467 113.702 81.703 199.131 81.703 85.122 0 151.345-27.236 198.67-81.703 39.027-44.74 58.54-98.392 58.54-160.963 0-61.925-19.667-115.255-59.001-159.996-48.246-54.792-112.78-82.188-193.6-82.188zm298.904 16.64v451.617h151.191V549.735zM875.023 670.712c27.657 0 51.166 10.228 70.526 30.653 19.667 20.101 29.5 44.735 29.5 73.914 0 29.502-9.68 54.456-29.04 74.881-19.36 20.101-43.022 30.17-70.986 30.17-31.345 0-56.85-12.33-76.518-36.97-15.98-19.776-23.97-42.47-23.97-68.081 0-25.289 7.99-47.823 23.97-67.599 19.667-24.64 45.173-36.968 76.518-36.968z" fill="#fff"/>
</svg>
