<svg xmlns="http://www.w3.org/2000/svg" width="1536" height="1536" viewBox="0 0 406.4 406.4">
    <path d="M350.604 12.71C295.725-8.684 96.801-16.593 96.468 102.1 38.43 139.256 0 199.857 0 264.634 0 342.95 63.48 406.4 141.82 406.4s141.82-63.48 141.82-141.765a141.778 141.778 0 0 0-91.328-132.53c-10.267-3.97-32.57-10.97-50.383-9.466-25.412 16.158-56.4 49.376-71.055 82.461 21.782-26.14 55.83-37.576 85.989-32.673a93.438 93.438 0 0 1 78.31 92.183c0 51.607-42.007 93.408-93.614 93.408a93.128 93.128 0 0 1-71.055-32.728c-25.152-29.613-31.637-61.716-26.449-93.092C61.977 122.196 192.421 59.62 289.392 35.583c-31.637 16.752-88.686 44.243-128.62 74.244C277.21 154.79 296.058 56.614 350.604 12.71z" fill="#231f20"/>
</svg>
